<svg width="27" height="26" viewBox="0 0 27 26" fill="none" xmlns="http://www.w3.org/2000/svg">
<path d="M12.0941 0.953177C12.5525 -0.135435 14.1135 -0.135434 14.5718 0.95318L17.2768 7.37836C17.4702 7.8373 17.907 8.15087 18.4085 8.19059L25.4299 8.74669C26.6195 8.84091 27.1019 10.3076 26.1955 11.0746L20.846 15.6016C20.4639 15.925 20.297 16.4324 20.4137 16.9158L22.0481 23.6847C22.325 24.8315 21.0622 25.7381 20.0436 25.1235L14.0323 21.4961C13.603 21.237 13.063 21.237 12.6336 21.4961L6.62229 25.1235C5.60378 25.7381 4.34091 24.8315 4.61781 23.6847L6.2522 16.9158C6.36894 16.4324 6.20206 15.925 5.81997 15.6016L0.470383 11.0746C-0.43599 10.3076 0.0463909 8.84091 1.23602 8.74669L8.25744 8.19059C8.75897 8.15087 9.19584 7.8373 9.38906 7.37836L12.0941 0.953177Z" fill="#006B6A"/>
</svg>
